<svg width="175" height="32" viewBox="0 0 175 32" fill="none" xmlns="http://www.w3.org/2000/svg">
<path d="M40.8108 8.89636H44.4326V14.4927H50.1072V8.89636H53.7181V23.1364H50.1072V17.4127H44.4326V23.1455H40.8108V8.89636Z" fill="white"/>
<path d="M56.2235 26.4928V23.9583C56.6133 24.0349 57.0099 24.0714 57.4072 24.0674C58.1472 24.0674 58.5526 23.8401 58.729 23.3655L58.809 23.1383L55.1072 12.3928H58.9763L60.8999 20.5146H60.989L62.9035 12.3928H66.5944L63.1708 23.0892C62.2926 25.8728 60.5945 26.6419 57.9799 26.6419C57.3914 26.6397 56.804 26.5898 56.2235 26.4928Z" fill="white"/>
<path d="M67.74 12.3908H71.2436V14.3054H71.3236C71.8691 12.9618 73.0109 12.1636 74.54 12.1636C77.2545 12.1636 78.8327 14.2054 78.8327 17.7581V17.7763C78.8327 21.309 77.2636 23.3708 74.58 23.3708C73.0309 23.3708 71.8527 22.5908 71.3073 21.2981H71.2382V26.5981H67.74V12.3908ZM75.28 17.7763V17.7654C75.28 16.049 74.4909 15.0218 73.2564 15.0218C72.0218 15.0218 71.2236 16.0508 71.2236 17.7763C71.2236 19.4745 72.0327 20.5199 73.2564 20.5199C74.48 20.5199 75.28 19.4654 75.28 17.7763Z" fill="white"/>
<path d="M80.2035 17.7764V17.7654C80.2035 14.3109 82.2762 12.1709 85.5435 12.1709C88.8108 12.1709 90.8526 14.2927 90.8526 17.5491V18.5745H83.6289C83.6671 20.0291 84.4562 20.8854 85.7308 20.8854C86.8562 20.8854 87.4671 20.2436 87.6253 19.7945V19.7454H90.7835L90.7544 19.8636C90.4289 21.3545 89.0762 23.3673 85.6526 23.3673C82.2671 23.3636 80.2035 21.2418 80.2035 17.7764ZM83.678 16.5036H87.5562C87.3744 15.3 86.6471 14.6491 85.6217 14.6491C84.5962 14.6491 83.8599 15.3218 83.678 16.5036Z" fill="white"/>
<path d="M92.5291 12.3909H96.0418V14.2945H96.1109C96.4072 12.9327 97.2545 12.1636 98.5181 12.1636C98.8266 12.1603 99.1337 12.2069 99.4272 12.3018V15.2909C99.0708 15.1581 98.6931 15.0916 98.3127 15.0945C96.8418 15.0945 96.0436 15.9036 96.0436 17.4327V23.1363H92.5291V12.3909Z" fill="white"/>
<path d="M100.205 17.7582C100.205 14.2945 102.298 12.1727 105.643 12.1727C108.673 12.1727 110.665 13.9909 110.714 16.5364L110.725 16.6055H107.507V16.5073C107.369 15.5109 106.738 14.82 105.711 14.82C104.496 14.82 103.767 15.8945 103.767 17.76V17.7764C103.767 19.6709 104.478 20.7164 105.72 20.7164C106.747 20.7164 107.369 20.0564 107.507 19.0291L107.527 18.9309H110.734V19C110.665 21.4964 108.78 23.3636 105.682 23.3636C102.287 23.3636 100.205 21.2418 100.205 17.7582Z" fill="white"/>
<path d="M112.007 17.7764V17.7564C112.007 14.2727 114.169 12.1709 117.504 12.1709C120.838 12.1709 123 14.2527 123 17.7564V17.7764C123 21.3291 120.889 23.3709 117.504 23.3709C114.118 23.3709 112.007 21.3109 112.007 17.7764ZM119.462 17.7764V17.7564C119.462 15.9 118.693 14.8254 117.507 14.8254C116.322 14.8254 115.564 15.9 115.564 17.7564V17.7764C115.564 19.6709 116.304 20.7164 117.518 20.7164C118.733 20.7164 119.458 19.6545 119.458 17.7764H119.462Z" fill="white"/>
<path d="M124.678 12.3908H128.18V14.2854H128.249C128.782 12.9327 129.885 12.1636 131.522 12.1636C133.885 12.1636 135.213 13.6727 135.213 16.2199V23.129H131.715V16.969C131.715 15.7363 131.131 15.0145 129.987 15.0145C128.844 15.0145 128.18 15.8436 128.18 17.0381V23.1363H124.678V12.3908Z" fill="white"/>
<path d="M138.042 19.9983V14.9565H136.587V12.391H138.042V9.91284H141.546V12.391H143.469V14.9565H141.553V19.5256C141.553 20.4528 141.967 20.7983 142.826 20.7983C143.044 20.7995 143.261 20.7831 143.476 20.7492V23.231C142.936 23.3221 142.388 23.3647 141.84 23.3583C139.233 23.3637 138.042 22.4274 138.042 19.9983Z" fill="white"/>
<path d="M144.856 17.7764V17.7654C144.856 14.3109 146.929 12.1709 150.196 12.1709C153.463 12.1709 155.505 14.2927 155.505 17.5491V18.5745H148.282C148.32 20.0291 149.109 20.8854 150.383 20.8854C151.507 20.8854 152.12 20.2436 152.278 19.7945V19.7454H155.436L155.407 19.8636C155.082 21.3545 153.729 23.3673 150.305 23.3673C146.92 23.3636 144.856 21.2418 144.856 17.7764ZM148.331 16.5127H152.209C152.027 15.3091 151.3 14.6582 150.274 14.6582C149.249 14.6582 148.507 15.3218 148.331 16.5036V16.5127Z" fill="white"/>
<path d="M159.6 17.7983L156.393 12.391H160.34L161.938 15.8255H162.007L163.596 12.391H167.365L164.149 17.7201L167.356 23.1364H163.576L161.809 19.5946H161.74L160.003 23.1364H156.382L159.6 17.7983Z" fill="white"/>
<path d="M169.565 19.9983V14.9565H168.111V12.391H169.565V9.91284H173.069V12.391H174.993V14.9565H173.069V19.5256C173.069 20.4528 173.484 20.7983 174.342 20.7983C174.56 20.7996 174.777 20.7831 174.993 20.7492V23.231C174.452 23.3222 173.904 23.3648 173.356 23.3583C170.749 23.3637 169.565 22.4274 169.565 19.9983Z" fill="white"/>
<path d="M6.36727 3.67636C4.60909 4.10909 3.55818 5.06364 3.18364 7.35273C2.80727 5.06364 1.75818 4.10909 0 3.67636C1.75818 3.24364 2.80727 2.28909 3.18364 0C3.55818 2.28909 4.60909 3.24364 6.36727 3.67636ZM31.0382 17.6218C30.9316 18.6932 30.4037 19.6782 29.5706 20.3602C28.7376 21.0422 27.6676 21.3652 26.5964 21.2582C25.5502 21.1483 24.589 20.6318 23.92 19.82L22.3782 22.5473H15.1055L17.2291 26.0455H27.0309C23.4618 26.5618 20.5164 28.8473 19.24 31.92C12.5553 31.6247 6.89227 26.8986 5.40561 20.3747C3.91895 13.8508 6.97531 7.13776 12.872 3.97541C18.7688 0.813053 26.0517 1.9812 30.6636 6.82909C29.1054 6.05922 27.3889 5.66387 25.6509 5.67455C22.0673 5.67455 18.9018 7.25636 16.9945 9.67455L23.0964 15.0927C22.4341 16.4266 22.599 18.0225 23.52 19.1927L23.5564 19.2364C23.5891 19.2782 23.6218 19.3182 23.6564 19.3564L23.7036 19.4073L23.8036 19.5145L23.8527 19.5618L23.9618 19.6636C24.5539 20.1998 25.3017 20.5329 26.0964 20.6145C28.0029 20.7944 29.7498 19.5401 30.1888 17.6761C30.6279 15.8122 29.6245 13.91 27.8382 13.22C29.8754 13.6502 31.2574 15.5512 31.0382 17.6218ZM17.6891 12.18L16.9091 11.4909C15.6683 13.02 14.987 14.9271 14.9782 16.8964C14.9808 18.3627 15.3629 19.8033 16.0873 21.0782H17.0291C15.0636 16.4182 16.8291 13.3109 17.6891 12.18ZM21.5327 16.5545C20.42 16.28 19.7545 15.6764 19.5182 14.2291C19.28 15.6836 18.6091 16.28 17.5036 16.5545C18.6164 16.8291 19.28 17.4309 19.5182 18.88C19.7545 17.4309 20.42 16.8291 21.5327 16.5545ZM26.6945 12.9764L20.8 9.03091L25.3855 13.1418C25.8088 13.0105 26.2519 12.9545 26.6945 12.9764ZM27.1527 14.8382C27.5362 14.8783 27.9012 15.0236 28.2073 15.2582C27.831 14.8324 27.3087 14.5632 26.7436 14.5036C25.4852 14.3901 24.3689 15.3084 24.2376 16.5652C24.1064 17.8219 25.0089 18.9511 26.2636 19.1C26.4452 19.1183 26.6284 19.1146 26.8091 19.0891H26.7091C25.5515 18.9498 24.7199 17.9076 24.8411 16.748C24.9622 15.5884 25.9914 14.7406 27.1527 14.8436V14.8382Z" fill="white"/>
</svg>
